PathFileType	4	(X/Y/Z)	C:\Users\WrightLab\Desktop\Jo\P2_Trial30.trc
DataRate	CameraRate	NumFrames	NumMarkers	Units	OrigDataRate	OrigDataStartFrame	OrigNumFrames
100.00	100.00	       13	19	mm	100.00	296	       591
Frame#	Time	Headset_Front			Headset_Back			Headset_Left			Headset_Right			Left_Shoulder			Right_Shoulder			Sternum			C7			Left Elbow			Right Elbow			Left Wrist			Right Wrist			Left ASIS			Right ASIS			S2			Left Knee			Right Knee			Left Ankle			Right Ankle			
		X1	Y1	Z1	X2	Y2	Z2	X3	Y3	Z3	X4	Y4	Z4	X5	Y5	Z5	X6	Y6	Z6	X7	Y7	Z7	X8	Y8	Z8	X9	Y9	Z9	X10	Y10	Z10	X11	Y11	Z11	X12	Y12	Z12	X13	Y13	Z13	X14	Y14	Z14	X15	Y15	Z15	X16	Y16	Z16	X17	Y17	Z17	X18	Y18	Z18	X19	Y19	Z19	

296	2.950	-210.73807	1483.68188	523.34900	-380.15399	1686.52222	367.44904	-244.48483	1580.66260	343.40781	-333.92480	1564.17163	554.40240	-329.54581	1439.31519	249.44240	-471.31039	1447.43091	538.99255	-340.23340	1324.04492	427.57883	-506.42108	1437.81812	357.98444	-344.88892	1126.91638	144.82884	-592.44403	1141.36279	638.14435	-158.21227	1133.08667	175.92130	-567.50366	918.21130	735.67523	-307.10580	1030.06641	386.41107	-368.15909	1005.43451	498.03827	-528.14093	947.53125	277.48459	-217.72714	470.63168	270.31390	-478.07303	518.72443	490.39838	-203.18524	119.23548	321.69788	-675.27368	217.21852	394.09268	
297	2.960	-203.28943	1483.70264	526.28619	-372.18106	1689.01990	373.53271	-235.87471	1583.26294	349.74564	-327.15710	1565.58447	560.26886	-320.02948	1441.61023	254.14140	-464.28687	1448.92029	543.35486	-332.66705	1325.44934	432.54965	-497.57190	1440.18164	361.86612	-333.78491	1129.47241	148.78662	-589.40680	1143.00903	639.01166	-148.40088	1137.43396	182.15627	-568.00165	917.67932	734.24274	-299.34537	1030.84131	391.63715	-361.34296	1008.01508	503.56079	-520.36096	949.41620	281.14755	-215.70467	469.41309	267.43179	-457.58105	523.55804	496.69952	-201.85275	118.05987	322.89932	-655.76019	222.88289	402.37845	
298	2.970	-195.88193	1487.00610	537.31628	-362.36795	1689.71704	379.83344	-227.29817	1585.33167	357.02695	-320.80368	1566.78748	566.34656	-310.42545	1443.18311	260.19580	-457.70383	1450.44666	547.37103	-325.72833	1326.96399	437.72336	-489.14151	1442.00378	365.81705	-304.68622	1141.27783	138.44382	-585.63086	1144.92554	639.70270	-137.93199	1141.81323	187.12059	-568.59412	917.09399	732.31622	-290.14539	1034.59668	398.49191	-354.95975	1009.70221	507.22153	-512.69562	951.55261	285.39465	-215.37843	468.72122	265.38428	-437.58023	529.06970	502.41879	-201.09737	117.80315	322.93796	-635.55457	227.52475	410.95459	
299	2.980	-189.69604	1487.54517	540.74976	-354.05676	1691.58923	385.81049	-218.82544	1587.74365	363.97684	-314.49353	1568.09668	572.31787	-300.70078	1445.08130	266.12900	-451.19058	1451.81445	551.52026	-317.85226	1328.86047	443.41510	-480.42596	1443.44434	369.53610	-293.28857	1144.63123	142.46222	-582.22998	1146.17297	640.70917	-126.86048	1145.75903	194.13762	-569.82233	916.50378	730.57111	-284.62036	1033.98950	402.44186	-348.15897	1010.65411	511.58466	-504.93997	953.59460	290.05478	-214.63481	468.65863	264.95590	-417.73367	534.76318	508.17319	-200.30560	117.50517	322.83197	-614.79327	231.40709	420.30341	
300	2.990	-182.97572	1489.73718	549.49200	-347.98761	1694.95776	391.66763	-210.36955	1589.74939	371.11600	-308.54776	1568.61194	578.15985	-291.15680	1446.89185	271.79425	-445.49393	1452.48584	556.28955	-310.64786	1330.11853	448.29712	-472.12878	1445.51074	373.39246	-282.14130	1146.75732	146.40245	-578.72913	1147.70044	641.28937	-116.55593	1148.94055	199.36729	-570.78113	916.04950	728.62463	-278.36746	1035.38977	408.28427	-341.94104	1011.97205	516.19171	-497.99222	955.34204	294.14334	-215.42545	468.55188	265.08325	-398.87344	541.27081	514.53711	-199.61035	117.05190	322.76917	-593.19525	235.20447	430.83200	
301	3.000	-176.48116	1490.64771	556.94263	-339.97546	1696.16931	397.76630	-202.00449	1591.77441	378.10413	-302.81210	1569.61536	584.32843	-281.67181	1448.16113	277.71545	-438.00461	1453.97156	560.12524	-303.61203	1331.79407	454.14059	-463.63208	1446.89197	377.40903	-271.41931	1149.41675	152.44193	-575.76764	1149.58032	642.11981	-106.57204	1152.35193	205.88638	-571.09198	915.21265	726.36426	-269.61111	1036.78052	413.12402	-335.65918	1013.79529	521.43829	-490.12201	956.77173	298.71252	-215.70033	468.52548	265.44876	-380.52802	547.06372	520.92456	-198.42732	116.93471	321.38037	-570.71320	238.22726	442.00839	
302	3.010	-170.89560	1490.87415	562.71033	-330.90939	1697.53772	403.92596	-193.56761	1593.53931	386.05551	-296.72672	1570.10962	590.14313	-272.20822	1449.53528	283.91345	-431.87842	1455.10303	564.72595	-296.52560	1332.30188	459.17114	-455.04102	1448.57422	381.02463	-259.99512	1151.64868	155.72472	-572.96393	1150.88281	643.05969	-95.48248	1155.31384	213.05559	-572.20050	915.06604	724.68341	-264.79037	1037.11902	418.59256	-329.44452	1015.68463	526.64941	-482.83777	957.95880	304.02844	-215.89433	468.24200	266.07990	-364.49976	554.30066	529.54620	-197.37343	116.32105	320.45609	-547.52142	240.93092	453.45200	
303	3.020	-164.74057	1491.99548	572.07458	-324.02243	1698.95740	410.10324	-185.38252	1595.11487	393.05722	-291.11353	1570.91199	596.44800	-262.56546	1450.55261	289.99863	-426.63245	1455.93384	569.12177	-289.36157	1333.16431	464.69662	-446.72141	1449.98071	385.22073	-248.48712	1153.50159	161.75565	-569.62305	1152.24207	643.89612	-85.71216	1158.51123	218.96092	-572.93970	914.49481	721.88013	-254.95616	1039.60168	425.48395	-323.61801	1016.86969	531.48706	-475.17499	959.22992	308.70364	-216.39743	468.01468	267.36734	-350.07956	559.85052	539.14984	-196.51036	116.63954	318.65509	-524.69232	242.65842	465.97253	
304	3.030	-158.99663	1492.83997	580.21234	-315.81772	1700.16357	416.13333	-177.34171	1596.50598	400.26791	-285.89145	1571.44116	602.50818	-253.02759	1451.59229	296.38065	-420.77585	1457.03516	573.61969	-282.39691	1333.88831	470.79132	-438.46021	1451.29822	389.04849	-237.45569	1154.90796	165.86652	-566.31403	1153.91382	644.81818	-75.35721	1160.13953	226.40263	-574.26459	915.10608	720.16046	-249.12842	1041.08069	430.30692	-318.10330	1017.99792	537.34637	-467.96140	960.14050	313.41479	-216.29793	467.97006	268.68710	-338.48965	564.59528	548.98383	-195.89441	116.46953	317.54233	-502.59756	245.13593	480.05637	
305	3.040	-153.56610	1493.15845	584.78632	-307.82874	1701.41541	422.54517	-167.85880	1597.16040	409.09979	-280.20117	1571.67334	608.48181	-243.64233	1452.38110	302.90192	-414.84598	1457.97803	578.10236	-275.63379	1334.63489	476.22266	-429.89725	1452.61865	393.17938	-225.90292	1156.85425	171.20671	-563.14478	1155.05554	645.61737	-64.46158	1162.82593	232.95753	-574.02069	914.49017	717.55627	-242.54317	1041.46997	436.26566	-312.80701	1019.12787	543.68018	-460.25156	960.82867	317.94299	-217.23117	467.96506	270.84109	-329.39581	567.09784	555.44659	-195.97313	116.05785	316.37296	-478.19470	243.76727	491.48813	
306	3.050	-147.85107	1492.98010	591.71625	-300.12222	1702.37952	428.83875	-161.23784	1598.24658	416.30258	-275.30621	1572.01392	614.87476	-234.32108	1452.91931	309.55463	-407.99567	1459.24744	582.40198	-268.72171	1334.94507	482.01913	-420.67194	1452.81714	397.81143	-214.44510	1158.46008	176.80257	-560.45001	1156.31714	646.32074	-53.87038	1164.49609	241.52214	-575.72900	915.39502	716.53577	-221.82468	1048.27112	450.95801	-305.93988	1022.25604	551.33154	-452.79449	962.05078	322.97659	-217.14058	468.55545	271.97839	-322.56940	569.91150	568.49677	-195.30795	116.04697	313.94739	-454.79764	242.80574	504.00244	
307	3.060	-142.50604	1492.72034	602.57916	-291.59561	1702.85986	434.92026	-151.57932	1598.42334	425.05042	-270.17514	1571.99817	621.04626	-225.03047	1453.61890	316.51239	-401.53067	1459.86243	586.81390	-262.61792	1335.16663	487.98935	-412.28275	1453.81714	402.17633	-203.62158	1159.31738	181.73241	-556.74377	1157.36694	646.82520	-42.09212	1165.13367	246.60220	-575.64148	915.92499	714.88007	-214.90395	1047.65210	456.21649	-302.03970	1020.93884	554.86890	-445.39136	962.64215	327.26962	-215.95465	468.80316	273.82983	-313.31735	572.01202	574.59149	-194.95041	115.80451	312.14160	-431.87228	241.53058	516.54065	
308	3.070	-138.67415	1493.85864	612.13245	-282.32526	1701.99561	441.52289	-143.97559	1599.06042	432.95999	-265.98669	1572.00671	627.29425	-215.85345	1453.74023	323.07785	-395.58569	1460.58484	591.42645	-256.45081	1335.82019	494.51297	-404.03015	1454.36536	406.49738	-192.09895	1161.04065	187.41017	-553.35846	1158.28711	647.37903	-31.41751	1166.04895	256.33087	-575.75464	916.20038	712.82104	-208.11253	1048.25879	464.73669	-296.29553	1021.24567	561.07874	-438.04242	962.79382	332.47858	-213.84218	468.39459	275.86682	-304.92123	573.72565	584.58203	-194.78795	115.18191	310.95874	-409.18890	238.47835	529.60126	
